<svg xmlns="http://www.w3.org/2000/svg" width="15" height="15" viewBox="0 0 15 15" fill="none">
  <g clip-path="url(#clip0_0_828)">
    <path d="M6.56265 0.000610352C2.9441 0.000610352 0.000518686 2.39766 0.000518686 5.34406C0.000518686 6.83647 0.750476 8.23608 2.07415 9.2429C1.63636 9.9263 1.07015 10.6181 0.355811 10.7944C0.129886 10.8506 -0.0210426 11.0644 0.00239358 11.2959C0.0258298 11.5284 0.216131 11.7074 0.449556 11.7178C0.459868 11.7178 0.500178 11.7196 0.567674 11.7196C1.05233 11.7196 2.92348 11.6418 5.0468 10.5403C5.53333 10.6388 6.04236 10.6875 6.56265 10.6875C10.1803 10.6875 13.1248 8.29045 13.1248 5.34406C13.1248 2.39766 10.1803 0.000610352 6.56265 0.000610352Z" fill="#5B41F5"/>
    <path d="M14.6434 14.0406C14.0463 13.8934 13.5944 13.4566 13.2785 13.0235C14.3781 12.162 14.9996 10.9771 14.9996 9.71431C14.9996 8.65687 14.5553 7.68474 13.8175 6.90759C12.9841 9.61588 10.0527 11.6248 6.56262 11.6248C6.09671 11.6248 5.63642 11.5892 5.18926 11.5189C4.92303 11.6473 4.66242 11.7608 4.40649 11.862C5.35238 13.315 7.22352 14.3078 9.37496 14.3078C9.81463 14.3078 10.2412 14.2675 10.6461 14.1887C11.9914 14.874 13.2185 15.0006 13.9403 14.9996C14.3359 14.9996 14.5797 14.9621 14.6069 14.9574C14.8262 14.9218 14.9903 14.7362 14.9996 14.514C15.0081 14.2919 14.86 14.0931 14.6434 14.0406Z" fill="#5B41F5"/>
  </g>
  <defs>
    <clipPath id="clip0_0_828">
      <rect width="15" height="15" fill="white"/>
    </clipPath>
  </defs>
</svg>