<svg width="735" height="79" viewBox="0 0 769 79" fill="none" xmlns="http://www.w3.org/2000/svg">
<mask id="path-1-outside-1_0_939" maskUnits="userSpaceOnUse" x="-1" y="-1" width="771" height="81" fill="black">
<rect fill="white" x="-1" y="-1" width="771" height="81"/>
<path d="M0.3125 2H37.1875C46.4375 2 54.5208 4.20833 61.4375 8.625C71.9375 15.4583 77.1875 25.8333 77.1875 39.75C77.1875 50.6667 73.5208 59.5833 66.1875 66.5C58.6875 73.5 49.1458 77 37.5625 77H0.3125V73.625H10.3125V5.375H0.3125V2ZM37.5625 5.375H27.8125V73.625H37.3125C41.2292 73.625 44.5208 72.8333 47.1875 71.25C54.1042 67.1667 57.5625 56.4583 57.5625 39.125C57.5625 30.4583 56.7292 23.5 55.0625 18.25C52.1458 9.66667 46.3125 5.375 37.5625 5.375ZM147.062 26H143.438L140.688 17.375C140.438 16.625 140.146 15.875 139.812 15.125C137.229 8.625 132.521 5.375 125.688 5.375H111.562V36.5H135.562V40.25H111.562V73.625H125.688C127.271 73.625 128.771 73.4583 130.188 73.125C134.938 71.875 138.396 68.0417 140.562 61.625L143.438 53H147.062L146.562 77H84.0625V73.625H94.0625V5.375H84.0625V2H146.562L147.062 26ZM251.812 2V5.375H241.812V73.625H248.438C250.188 73.7917 251.312 74.9167 251.812 77H214.938V73.625H224.938V14.25L198.062 78.25H195.812L169.188 26.5V73.625H175.812C177.562 73.7917 178.688 74.9167 179.188 77H153.938V73.625H163.938V5.375H153.938V2H176.312L202.562 55.75L224.938 2H251.812ZM297.438 0.75C306.854 0.75 315.062 3.29167 322.062 8.375C331.812 15.5417 336.688 26 336.688 39.75C336.688 51.0833 332.812 60.4167 325.062 67.75C317.479 74.75 308.146 78.25 297.062 78.25C287.312 78.25 278.812 75.4583 271.562 69.875C262.146 62.5417 257.438 52.3333 257.438 39.25C257.438 27.8333 261.396 18.5 269.312 11.25C276.979 4.25 286.354 0.75 297.438 0.75ZM297.438 74.625C301.271 74.625 304.479 73.7917 307.062 72.125C313.729 67.875 317.062 56.875 317.062 39.125C317.062 31.625 316.438 25.3333 315.188 20.25C312.521 9.66667 306.479 4.375 297.062 4.375C294.229 4.375 291.688 4.875 289.438 5.875C281.188 9.375 277.062 20.6667 277.062 39.75C277.062 49.75 278.104 57.5 280.188 63C283.188 70.75 288.938 74.625 297.438 74.625ZM404.812 77H343.562V73.625H353.562V5.375H343.562V2H381.688V5.375H371.062V73.625H383.938C386.438 73.625 388.646 73.2083 390.562 72.375C393.812 70.7917 396.312 67.2083 398.062 61.625L401.688 49.875H405.312L404.812 77ZM406.562 5.375V2H444.062V5.375H434.062V48.5C434.062 53.25 434.438 57.3333 435.188 60.75C437.188 69.9167 442.396 74.5 450.812 74.5C464.146 74.4167 470.854 65.75 470.938 48.5V5.375H460.938V2H485.562V5.375H475.562V47.75C475.562 53.6667 474.896 58.7083 473.562 62.875C470.062 73.125 461.604 78.25 448.188 78.25C427.271 78.1667 416.729 68.5833 416.562 49.5V5.375H406.562ZM541.562 77H500.312V73.625H512.188V5.375H510.062C507.229 5.375 504.812 5.91667 502.812 7C499.896 8.66667 497.521 12.1667 495.688 17.5L491.812 28.75H488.062L488.562 2H553.312L553.812 28.75H550.062L546.188 17.5C545.604 15.9167 545.062 14.5417 544.562 13.375C542.062 8.04167 537.812 5.375 531.812 5.375H529.688V73.625H538.188C539.938 73.7917 541.062 74.9167 541.562 77ZM595.688 77H558.188V73.625H568.188V5.375H558.188V2H595.688V5.375H585.688V73.625H592.312C594.062 73.7917 595.188 74.9167 595.688 77ZM642.562 0.75C651.979 0.75 660.188 3.29167 667.188 8.375C676.938 15.5417 681.812 26 681.812 39.75C681.812 51.0833 677.938 60.4167 670.188 67.75C662.604 74.75 653.271 78.25 642.188 78.25C632.438 78.25 623.938 75.4583 616.688 69.875C607.271 62.5417 602.562 52.3333 602.562 39.25C602.562 27.8333 606.521 18.5 614.438 11.25C622.104 4.25 631.479 0.75 642.562 0.75ZM642.562 74.625C646.396 74.625 649.604 73.7917 652.188 72.125C658.854 67.875 662.188 56.875 662.188 39.125C662.188 31.625 661.562 25.3333 660.312 20.25C657.646 9.66667 651.604 4.375 642.188 4.375C639.354 4.375 636.812 4.875 634.562 5.875C626.312 9.375 622.188 20.6667 622.188 39.75C622.188 49.75 623.229 57.5 625.312 63C628.312 70.75 634.062 74.625 642.562 74.625ZM743.312 5.375V2H768.562V5.375H758.562V76.375L751.438 77.625L703.312 21.5V73.625H710.562C712.312 73.7917 713.438 74.9167 713.938 77H688.062V73.625H698.062V5.375H688.062V2H709.188L753.312 53.75V5.375H743.312Z"/>
</mask>
<path d="M0.3125 2V1H-0.6875V2H0.3125ZM61.4375 8.625L61.983 7.78683L61.9757 7.78218L61.4375 8.625ZM66.1875 66.5L66.8698 67.2311L66.8736 67.2275L66.1875 66.5ZM0.3125 77H-0.6875V78H0.3125V77ZM0.3125 73.625V72.625H-0.6875V73.625H0.3125ZM10.3125 73.625V74.625H11.3125V73.625H10.3125ZM10.3125 5.375H11.3125V4.375H10.3125V5.375ZM0.3125 5.375H-0.6875V6.375H0.3125V5.375ZM27.8125 5.375V4.375H26.8125V5.375H27.8125ZM27.8125 73.625H26.8125V74.625H27.8125V73.625ZM47.1875 71.25L46.6791 70.3889L46.677 70.3901L47.1875 71.25ZM55.0625 18.25L56.0156 17.9474L56.0126 17.9378L56.0093 17.9283L55.0625 18.25ZM0.3125 3H37.1875V1H0.3125V3ZM37.1875 3C46.2718 3 54.1632 5.16646 60.8993 9.46782L61.9757 7.78218C54.8785 3.25021 46.6032 1 37.1875 1V3ZM60.892 9.46314C71.0733 16.089 76.1875 26.1273 76.1875 39.75H78.1875C78.1875 25.5394 72.8017 14.8276 61.983 7.78686L60.892 9.46314ZM76.1875 39.75C76.1875 50.4167 72.6166 59.0616 65.5014 65.7725L66.8736 67.2275C74.4251 60.1051 78.1875 50.9166 78.1875 39.75H76.1875ZM65.5052 65.7689C58.2146 72.5735 48.9278 76 37.5625 76V78C49.3639 78 59.1604 74.4265 66.8698 67.2311L65.5052 65.7689ZM37.5625 76H0.3125V78H37.5625V76ZM1.3125 77V73.625H-0.6875V77H1.3125ZM0.3125 74.625H10.3125V72.625H0.3125V74.625ZM11.3125 73.625V5.375H9.3125V73.625H11.3125ZM10.3125 4.375H0.3125V6.375H10.3125V4.375ZM1.3125 5.375V2H-0.6875V5.375H1.3125ZM37.5625 4.375H27.8125V6.375H37.5625V4.375ZM26.8125 5.375V73.625H28.8125V5.375H26.8125ZM27.8125 74.625H37.3125V72.625H27.8125V74.625ZM37.3125 74.625C41.3622 74.625 44.8412 73.8061 47.698 72.1099L46.677 70.3901C44.2005 71.8606 41.0961 72.625 37.3125 72.625V74.625ZM47.6959 72.1111C51.4358 69.9032 54.1461 65.9573 55.9204 60.4636C57.694 54.9717 58.5625 47.846 58.5625 39.125H56.5625C56.5625 47.7373 55.7018 54.6325 54.0171 59.8489C52.3331 65.0635 49.8558 68.5135 46.6791 70.3889L47.6959 72.1111ZM58.5625 39.125C58.5625 30.4074 57.7259 23.3347 56.0156 17.9474L54.1094 18.5526C55.7325 23.6653 56.5625 30.5093 56.5625 39.125H58.5625ZM56.0093 17.9283C54.5019 13.492 52.2114 10.0828 49.0926 7.78826C45.9709 5.49155 42.1053 4.375 37.5625 4.375V6.375C41.7697 6.375 45.1958 7.40428 47.9074 9.39924C50.622 11.3964 52.7065 14.4247 54.1157 18.5717L56.0093 17.9283ZM147.062 26V27H148.084L148.062 25.9792L147.062 26ZM143.438 26L142.485 26.3038L142.707 27H143.438V26ZM140.688 17.375L141.64 17.0712L141.636 17.0588L140.688 17.375ZM139.812 15.125L138.883 15.4943L138.891 15.5129L138.899 15.5311L139.812 15.125ZM111.562 5.375V4.375H110.562V5.375H111.562ZM111.562 36.5H110.562V37.5H111.562V36.5ZM135.562 36.5H136.562V35.5H135.562V36.5ZM135.562 40.25V41.25H136.562V40.25H135.562ZM111.562 40.25V39.25H110.562V40.25H111.562ZM111.562 73.625H110.562V74.625H111.562V73.625ZM130.188 73.125L130.417 74.0984L130.429 74.0954L130.442 74.0921L130.188 73.125ZM140.562 61.625L141.51 61.9449L141.511 61.9412L140.562 61.625ZM143.438 53V52H142.717L142.489 52.6838L143.438 53ZM147.062 53L148.062 53.0208L148.084 52H147.062V53ZM146.562 77V78H147.542L147.562 77.0208L146.562 77ZM84.0625 77H83.0625V78H84.0625V77ZM84.0625 73.625V72.625H83.0625V73.625H84.0625ZM94.0625 73.625V74.625H95.0625V73.625H94.0625ZM94.0625 5.375H95.0625V4.375H94.0625V5.375ZM84.0625 5.375H83.0625V6.375H84.0625V5.375ZM84.0625 2V1H83.0625V2H84.0625ZM146.562 2L147.562 1.97917L147.542 1H146.562V2ZM147.062 25H143.438V27H147.062V25ZM144.39 25.6962L141.64 17.0712L139.735 17.6788L142.485 26.3038L144.39 25.6962ZM141.636 17.0588C141.376 16.2771 141.072 15.4971 140.726 14.7189L138.899 15.5311C139.219 16.2529 139.499 16.9729 139.739 17.6912L141.636 17.0588ZM140.742 14.7557C139.394 11.3633 137.462 8.74954 134.912 6.98952C132.36 5.22832 129.267 4.375 125.688 4.375V6.375C128.941 6.375 131.619 7.14668 133.776 8.63548C135.934 10.1255 137.648 12.3867 138.883 15.4943L140.742 14.7557ZM125.688 4.375H111.562V6.375H125.688V4.375ZM110.562 5.375V36.5H112.562V5.375H110.562ZM111.562 37.5H135.562V35.5H111.562V37.5ZM134.562 36.5V40.25H136.562V36.5H134.562ZM135.562 39.25H111.562V41.25H135.562V39.25ZM110.562 40.25V73.625H112.562V40.25H110.562ZM111.562 74.625H125.688V72.625H111.562V74.625ZM125.688 74.625C127.341 74.625 128.919 74.4509 130.417 74.0984L129.958 72.1516C128.623 72.4658 127.2 72.625 125.688 72.625V74.625ZM130.442 74.0921C135.632 72.7262 139.28 68.5477 141.51 61.9449L139.615 61.3051C137.511 67.5356 134.243 71.0238 129.933 72.1579L130.442 74.0921ZM141.511 61.9412L144.386 53.3162L142.489 52.6838L139.614 61.3088L141.511 61.9412ZM143.438 54H147.062V52H143.438V54ZM146.063 52.9792L145.563 76.9792L147.562 77.0208L148.062 53.0208L146.063 52.9792ZM146.562 76H84.0625V78H146.562V76ZM85.0625 77V73.625H83.0625V77H85.0625ZM84.0625 74.625H94.0625V72.625H84.0625V74.625ZM95.0625 73.625V5.375H93.0625V73.625H95.0625ZM94.0625 4.375H84.0625V6.375H94.0625V4.375ZM85.0625 5.375V2H83.0625V5.375H85.0625ZM84.0625 3H146.562V1H84.0625V3ZM145.563 2.02083L146.063 26.0208L148.062 25.9792L147.562 1.97917L145.563 2.02083ZM251.812 2H252.812V1H251.812V2ZM251.812 5.375V6.375H252.812V5.375H251.812ZM241.812 5.375V4.375H240.812V5.375H241.812ZM241.812 73.625H240.812V74.625H241.812V73.625ZM248.438 73.625L248.532 72.6295L248.485 72.625H248.438V73.625ZM251.812 77V78H253.081L252.785 76.7666L251.812 77ZM214.938 77H213.938V78H214.938V77ZM214.938 73.625V72.625H213.938V73.625H214.938ZM224.938 73.625V74.625H225.938V73.625H224.938ZM224.938 14.25H225.938L224.015 13.8628L224.938 14.25ZM198.062 78.25V79.25H198.727L198.985 78.6372L198.062 78.25ZM195.812 78.25L194.923 78.7075L195.202 79.25H195.812V78.25ZM169.188 26.5L170.077 26.0425L168.188 26.5H169.188ZM169.188 73.625H168.188V74.625H169.188V73.625ZM175.812 73.625L175.907 72.6295L175.86 72.625H175.812V73.625ZM179.188 77V78H180.456L180.16 76.7666L179.188 77ZM153.938 77H152.938V78H153.938V77ZM153.938 73.625V72.625H152.938V73.625H153.938ZM163.938 73.625V74.625H164.938V73.625H163.938ZM163.938 5.375H164.938V4.375H163.938V5.375ZM153.938 5.375H152.938V6.375H153.938V5.375ZM153.938 2V1H152.938V2H153.938ZM176.312 2L177.211 1.56116L176.937 1H176.312V2ZM202.562 55.75L201.664 56.1888L202.635 58.1775L203.486 56.1343L202.562 55.75ZM224.938 2V1H224.271L224.014 1.61569L224.938 2ZM250.812 2V5.375H252.812V2H250.812ZM251.812 4.375H241.812V6.375H251.812V4.375ZM240.812 5.375V73.625H242.812V5.375H240.812ZM241.812 74.625H248.438V72.625H241.812V74.625ZM248.343 74.6205C249.012 74.6843 249.506 74.9202 249.887 75.3009C250.281 75.6952 250.619 76.3108 250.84 77.2334L252.785 76.7666C252.506 75.6058 252.032 74.6173 251.301 73.8866C250.556 73.1423 249.613 72.7324 248.532 72.6295L248.343 74.6205ZM251.812 76H214.938V78H251.812V76ZM215.938 77V73.625H213.938V77H215.938ZM214.938 74.625H224.938V72.625H214.938V74.625ZM225.938 73.625V14.25H223.938V73.625H225.938ZM224.015 13.8628L197.14 77.8628L198.985 78.6372L225.86 14.6372L224.015 13.8628ZM198.062 77.25H195.812V79.25H198.062V77.25ZM196.702 77.7925L170.077 26.0425L168.298 26.9575L194.923 78.7075L196.702 77.7925ZM168.188 26.5V73.625H170.188V26.5H168.188ZM169.188 74.625H175.812V72.625H169.188V74.625ZM175.718 74.6205C176.387 74.6843 176.881 74.9202 177.262 75.3009C177.656 75.6952 177.994 76.3108 178.215 77.2334L180.16 76.7666C179.881 75.6058 179.407 74.6173 178.676 73.8866C177.931 73.1423 176.988 72.7324 175.907 72.6295L175.718 74.6205ZM179.188 76H153.938V78H179.188V76ZM154.938 77V73.625H152.938V77H154.938ZM153.938 74.625H163.938V72.625H153.938V74.625ZM164.938 73.625V5.375H162.938V73.625H164.938ZM163.938 4.375H153.938V6.375H163.938V4.375ZM154.938 5.375V2H152.938V5.375H154.938ZM153.938 3H176.312V1H153.938V3ZM175.414 2.43884L201.664 56.1888L203.461 55.3112L177.211 1.56116L175.414 2.43884ZM203.486 56.1343L225.861 2.38431L224.014 1.61569L201.639 55.3657L203.486 56.1343ZM224.938 3H251.812V1H224.938V3ZM322.062 8.375L322.655 7.56924L322.65 7.56585L322.062 8.375ZM325.062 67.75L325.741 68.4849L325.75 68.4764L325.062 67.75ZM271.562 69.875L270.948 70.664L270.952 70.6673L271.562 69.875ZM269.312 11.25L268.638 10.5115L268.637 10.5125L269.312 11.25ZM307.062 72.125L306.525 71.2818L306.52 71.2847L307.062 72.125ZM315.188 20.25L316.159 20.0112L316.157 20.0057L315.188 20.25ZM289.438 5.875L289.828 6.79558L289.836 6.79226L289.844 6.78881L289.438 5.875ZM280.188 63L279.252 63.3542L279.255 63.361L280.188 63ZM297.438 1.75C306.663 1.75 314.661 4.23596 321.475 9.18415L322.65 7.56585C315.464 2.34738 307.046 -0.25 297.438 -0.25V1.75ZM321.47 9.18075C330.926 16.1313 335.688 26.2684 335.688 39.75H337.688C337.688 25.7316 332.699 14.952 322.655 7.56925L321.47 9.18075ZM335.688 39.75C335.688 50.8277 331.912 59.8919 324.375 67.0236L325.75 68.4764C333.713 60.9414 337.688 51.339 337.688 39.75H335.688ZM324.384 67.0152C317 73.8314 307.915 77.25 297.062 77.25V79.25C308.377 79.25 317.958 75.6686 325.741 68.4848L324.384 67.0152ZM297.062 77.25C287.518 77.25 279.236 74.5222 272.173 69.0827L270.952 70.6673C278.389 76.3944 287.107 79.25 297.062 79.25V77.25ZM272.177 69.086C263.029 61.9621 258.438 52.059 258.438 39.25H256.438C256.438 52.6077 261.262 63.1212 270.948 70.664L272.177 69.086ZM258.438 39.25C258.438 28.0938 262.292 19.0349 269.988 11.9875L268.637 10.5125C260.499 17.9651 256.438 27.5729 256.438 39.25H258.438ZM269.987 11.9885C277.456 5.16875 286.585 1.75 297.438 1.75V-0.25C286.123 -0.25 276.502 3.33125 268.638 10.5115L269.987 11.9885ZM297.438 75.625C301.416 75.625 304.824 74.7593 307.605 72.9653L306.52 71.2847C304.134 72.8241 301.126 73.625 297.438 73.625V75.625ZM307.6 72.9682C311.209 70.6675 313.814 66.6046 315.52 60.9775C317.226 55.347 318.062 48.051 318.062 39.125H316.062C316.062 47.949 315.233 55.028 313.605 60.3975C311.977 65.7704 309.583 69.3325 306.525 71.2818L307.6 72.9682ZM318.062 39.125C318.062 31.576 317.434 25.1983 316.159 20.0112L314.216 20.4888C315.441 25.4684 316.062 31.674 316.062 39.125H318.062ZM316.157 20.0057C314.792 14.5861 312.535 10.4114 309.315 7.59149C306.081 4.75906 301.969 3.375 297.062 3.375V5.375C301.573 5.375 305.19 6.63677 307.997 9.09601C310.819 11.5677 312.917 15.3305 314.218 20.4943L316.157 20.0057ZM297.062 3.375C294.11 3.375 291.427 3.89642 289.031 4.96119L289.844 6.78881C291.948 5.85358 294.348 5.375 297.062 5.375V3.375ZM289.047 4.95442C284.589 6.84586 281.341 10.8122 279.217 16.6256C277.098 22.4266 276.062 30.1518 276.062 39.75H278.062C278.062 30.2649 279.09 22.8025 281.096 17.3119C283.097 11.8337 286.036 8.40414 289.828 6.79558L289.047 4.95442ZM276.062 39.75C276.062 49.7984 277.106 57.6887 279.252 63.3542L281.123 62.6458C279.102 57.3113 278.062 49.7016 278.062 39.75H276.062ZM279.255 63.361C280.814 67.388 283.115 70.4752 286.191 72.548C289.265 74.6197 293.034 75.625 297.438 75.625V73.625C293.341 73.625 289.985 72.6928 287.309 70.8895C284.635 69.0873 282.561 66.362 281.12 62.639L279.255 63.361ZM404.812 77V78H405.794L405.812 77.0184L404.812 77ZM343.562 77H342.562V78H343.562V77ZM343.562 73.625V72.625H342.562V73.625H343.562ZM353.562 73.625V74.625H354.562V73.625H353.562ZM353.562 5.375H354.562V4.375H353.562V5.375ZM343.562 5.375H342.562V6.375H343.562V5.375ZM343.562 2V1H342.562V2H343.562ZM381.688 2H382.688V1H381.688V2ZM381.688 5.375V6.375H382.688V5.375H381.688ZM371.062 5.375V4.375H370.062V5.375H371.062ZM371.062 73.625H370.062V74.625H371.062V73.625ZM390.562 72.375L390.961 73.2921L390.981 73.2835L391 73.274L390.562 72.375ZM398.062 61.625L399.017 61.9241L399.018 61.9198L398.062 61.625ZM401.688 49.875V48.875H400.95L400.732 49.5802L401.688 49.875ZM405.312 49.875L406.312 49.8934L406.331 48.875H405.312V49.875ZM404.812 76H343.562V78H404.812V76ZM344.562 77V73.625H342.562V77H344.562ZM343.562 74.625H353.562V72.625H343.562V74.625ZM354.562 73.625V5.375H352.562V73.625H354.562ZM353.562 4.375H343.562V6.375H353.562V4.375ZM344.562 5.375V2H342.562V5.375H344.562ZM343.562 3H381.688V1H343.562V3ZM380.688 2V5.375H382.688V2H380.688ZM381.688 4.375H371.062V6.375H381.688V4.375ZM370.062 5.375V73.625H372.062V5.375H370.062ZM371.062 74.625H383.938V72.625H371.062V74.625ZM383.938 74.625C386.548 74.625 388.897 74.1897 390.961 73.2921L390.164 71.4579C388.395 72.2269 386.327 72.625 383.938 72.625V74.625ZM391 73.274C394.614 71.5134 397.234 67.6131 399.017 61.9241L397.108 61.3259C395.391 66.8036 393.011 70.0699 390.125 71.476L391 73.274ZM399.018 61.9198L402.643 50.1698L400.732 49.5802L397.107 61.3302L399.018 61.9198ZM401.688 50.875H405.312V48.875H401.688V50.875ZM404.313 49.8566L403.813 76.9816L405.812 77.0184L406.312 49.8934L404.313 49.8566ZM406.562 5.375H405.562V6.375H406.562V5.375ZM406.562 2V1H405.562V2H406.562ZM444.062 2H445.062V1H444.062V2ZM444.062 5.375V6.375H445.062V5.375H444.062ZM434.062 5.375V4.375H433.062V5.375H434.062ZM435.188 60.75L436.165 60.5368L436.164 60.5356L435.188 60.75ZM450.812 74.5V75.5L450.819 75.5L450.812 74.5ZM470.938 48.5L471.938 48.5048V48.5H470.938ZM470.938 5.375H471.938V4.375H470.938V5.375ZM460.938 5.375H459.938V6.375H460.938V5.375ZM460.938 2V1H459.938V2H460.938ZM485.562 2H486.562V1H485.562V2ZM485.562 5.375V6.375H486.562V5.375H485.562ZM475.562 5.375V4.375H474.562V5.375H475.562ZM473.562 62.875L474.509 63.1981L474.512 63.189L474.515 63.1798L473.562 62.875ZM448.188 78.25L448.184 79.25H448.188V78.25ZM416.562 49.5H415.562L415.563 49.5087L416.562 49.5ZM416.562 5.375H417.562V4.375H416.562V5.375ZM407.562 5.375V2H405.562V5.375H407.562ZM406.562 3H444.062V1H406.562V3ZM443.062 2V5.375H445.062V2H443.062ZM444.062 4.375H434.062V6.375H444.062V4.375ZM433.062 5.375V48.5H435.062V5.375H433.062ZM433.062 48.5C433.062 53.2983 433.441 57.4574 434.211 60.9644L436.164 60.5356C435.434 57.2093 435.062 53.2017 435.062 48.5H433.062ZM434.21 60.9632C435.24 65.6825 437.121 69.3386 439.933 71.8132C442.757 74.2981 446.415 75.5 450.812 75.5V73.5C446.793 73.5 443.639 72.4102 441.254 70.3118C438.858 68.2031 437.135 64.9842 436.165 60.5368L434.21 60.9632ZM450.819 75.5C457.719 75.4569 463.051 73.1789 466.635 68.5496C470.181 63.9677 471.895 57.2318 471.937 48.5048L469.938 48.4952C469.896 57.0182 468.215 63.2406 465.053 67.3254C461.928 71.3628 457.24 73.4598 450.806 73.5L450.819 75.5ZM471.938 48.5V5.375H469.938V48.5H471.938ZM470.938 4.375H460.938V6.375H470.938V4.375ZM461.938 5.375V2H459.938V5.375H461.938ZM460.938 3H485.562V1H460.938V3ZM484.562 2V5.375H486.562V2H484.562ZM485.562 4.375H475.562V6.375H485.562V4.375ZM474.562 5.375V47.75H476.562V5.375H474.562ZM474.562 47.75C474.562 53.5971 473.903 58.5299 472.61 62.5702L474.515 63.1798C475.889 58.8868 476.562 53.7362 476.562 47.75H474.562ZM472.616 62.5519C470.934 67.4774 468.084 71.122 464.076 73.551C460.049 75.9908 454.776 77.25 448.188 77.25V79.25C455.016 79.25 460.68 77.9467 465.112 75.2615C469.561 72.5655 472.691 68.5226 474.509 63.1981L472.616 62.5519ZM448.191 77.25C437.867 77.2089 430.285 74.8221 425.266 70.2601C420.265 65.7134 417.644 58.8531 417.562 49.4913L415.563 49.5087C415.647 59.2303 418.381 66.7033 423.921 71.7399C429.445 76.7613 437.591 79.2078 448.184 79.25L448.191 77.25ZM417.562 49.5V5.375H415.562V49.5H417.562ZM416.562 4.375H406.562V6.375H416.562V4.375ZM541.562 77V78H542.831L542.535 76.7666L541.562 77ZM500.312 77H499.312V78H500.312V77ZM500.312 73.625V72.625H499.312V73.625H500.312ZM512.188 73.625V74.625H513.188V73.625H512.188ZM512.188 5.375H513.188V4.375H512.188V5.375ZM502.812 7L502.336 6.12071L502.326 6.12612L502.316 6.13176L502.812 7ZM495.688 17.5L496.633 17.8257L496.633 17.8251L495.688 17.5ZM491.812 28.75V29.75H492.526L492.758 29.0757L491.812 28.75ZM488.062 28.75L487.063 28.7313L487.044 29.75H488.062V28.75ZM488.562 2V1H487.581L487.563 1.98131L488.562 2ZM553.312 2L554.312 1.98131L554.294 1H553.312V2ZM553.812 28.75V29.75H554.831L554.812 28.7313L553.812 28.75ZM550.062 28.75L549.117 29.0757L549.349 29.75H550.062V28.75ZM546.188 17.5L547.133 17.1743L547.13 17.1643L547.126 17.1543L546.188 17.5ZM544.562 13.375L545.482 12.9811L545.475 12.9657L545.468 12.9506L544.562 13.375ZM529.688 5.375V4.375H528.688V5.375H529.688ZM529.688 73.625H528.688V74.625H529.688V73.625ZM538.188 73.625L538.282 72.6295L538.235 72.625H538.188V73.625ZM541.562 76H500.312V78H541.562V76ZM501.312 77V73.625H499.312V77H501.312ZM500.312 74.625H512.188V72.625H500.312V74.625ZM513.188 73.625V5.375H511.188V73.625H513.188ZM512.188 4.375H510.062V6.375H512.188V4.375ZM510.062 4.375C507.103 4.375 504.514 4.94099 502.336 6.12071L503.289 7.87929C505.111 6.89234 507.355 6.375 510.062 6.375V4.375ZM502.316 6.13176C499.086 7.97758 496.605 11.7562 494.742 17.1749L496.633 17.8251C498.437 12.5771 500.705 9.35575 503.309 7.86824L502.316 6.13176ZM494.742 17.1743L490.867 28.4243L492.758 29.0757L496.633 17.8257L494.742 17.1743ZM491.812 27.75H488.062V29.75H491.812V27.75ZM489.062 28.7687L489.562 2.01869L487.563 1.98131L487.063 28.7313L489.062 28.7687ZM488.562 3H553.312V1H488.562V3ZM552.313 2.01869L552.813 28.7687L554.812 28.7313L554.312 1.98131L552.313 2.01869ZM553.812 27.75H550.062V29.75H553.812V27.75ZM551.008 28.4243L547.133 17.1743L545.242 17.8257L549.117 29.0757L551.008 28.4243ZM547.126 17.1543C546.538 15.5596 545.99 14.1678 545.482 12.9811L543.643 13.7689C544.135 14.9155 544.67 16.2737 545.249 17.8457L547.126 17.1543ZM545.468 12.9506C544.151 10.1408 542.346 7.98001 540.031 6.52794C537.718 5.0766 534.963 4.375 531.812 4.375V6.375C534.662 6.375 537.032 7.00674 538.969 8.22206C540.904 9.43666 542.474 11.2758 543.657 13.7994L545.468 12.9506ZM531.812 4.375H529.688V6.375H531.812V4.375ZM528.688 5.375V73.625H530.688V5.375H528.688ZM529.688 74.625H538.188V72.625H529.688V74.625ZM538.093 74.6205C538.762 74.6843 539.256 74.9202 539.637 75.3009C540.031 75.6952 540.369 76.3108 540.59 77.2334L542.535 76.7666C542.256 75.6058 541.782 74.6173 541.051 73.8866C540.306 73.1423 539.363 72.7324 538.282 72.6295L538.093 74.6205ZM595.688 77V78H596.956L596.66 76.7666L595.688 77ZM558.188 77H557.188V78H558.188V77ZM558.188 73.625V72.625H557.188V73.625H558.188ZM568.188 73.625V74.625H569.188V73.625H568.188ZM568.188 5.375H569.188V4.375H568.188V5.375ZM558.188 5.375H557.188V6.375H558.188V5.375ZM558.188 2V1H557.188V2H558.188ZM595.688 2H596.688V1H595.688V2ZM595.688 5.375V6.375H596.688V5.375H595.688ZM585.688 5.375V4.375H584.688V5.375H585.688ZM585.688 73.625H584.688V74.625H585.688V73.625ZM592.312 73.625L592.407 72.6295L592.36 72.625H592.312V73.625ZM595.688 76H558.188V78H595.688V76ZM559.188 77V73.625H557.188V77H559.188ZM558.188 74.625H568.188V72.625H558.188V74.625ZM569.188 73.625V5.375H567.188V73.625H569.188ZM568.188 4.375H558.188V6.375H568.188V4.375ZM559.188 5.375V2H557.188V5.375H559.188ZM558.188 3H595.688V1H558.188V3ZM594.688 2V5.375H596.688V2H594.688ZM595.688 4.375H585.688V6.375H595.688V4.375ZM584.688 5.375V73.625H586.688V5.375H584.688ZM585.688 74.625H592.312V72.625H585.688V74.625ZM592.218 74.6205C592.887 74.6843 593.381 74.9202 593.762 75.3009C594.156 75.6952 594.494 76.3108 594.715 77.2334L596.66 76.7666C596.381 75.6058 595.907 74.6173 595.176 73.8866C594.431 73.1423 593.488 72.7324 592.407 72.6295L592.218 74.6205ZM667.188 8.375L667.78 7.56924L667.775 7.56585L667.188 8.375ZM670.188 67.75L670.866 68.4849L670.875 68.4764L670.188 67.75ZM616.688 69.875L616.073 70.664L616.077 70.6673L616.688 69.875ZM614.438 11.25L613.763 10.5115L613.762 10.5125L614.438 11.25ZM652.188 72.125L651.65 71.2818L651.645 71.2847L652.188 72.125ZM660.312 20.25L661.284 20.0112L661.282 20.0057L660.312 20.25ZM634.562 5.875L634.953 6.79558L634.961 6.79226L634.969 6.78881L634.562 5.875ZM625.312 63L624.377 63.3542L624.38 63.361L625.312 63ZM642.562 1.75C651.788 1.75 659.786 4.23596 666.6 9.18415L667.775 7.56585C660.589 2.34738 652.171 -0.25 642.562 -0.25V1.75ZM666.595 9.18075C676.051 16.1313 680.812 26.2684 680.812 39.75H682.812C682.812 25.7316 677.824 14.952 667.78 7.56925L666.595 9.18075ZM680.812 39.75C680.812 50.8277 677.037 59.8919 669.5 67.0236L670.875 68.4764C678.838 60.9414 682.812 51.339 682.812 39.75H680.812ZM669.509 67.0152C662.125 73.8314 653.04 77.25 642.188 77.25V79.25C653.502 79.25 663.083 75.6686 670.866 68.4848L669.509 67.0152ZM642.188 77.25C632.643 77.25 624.361 74.5222 617.298 69.0827L616.077 70.6673C623.514 76.3944 632.232 79.25 642.188 79.25V77.25ZM617.302 69.086C608.154 61.9621 603.562 52.059 603.562 39.25H601.562C601.562 52.6077 606.387 63.1212 616.073 70.664L617.302 69.086ZM603.562 39.25C603.562 28.0938 607.417 19.0349 615.113 11.9875L613.762 10.5125C605.624 17.9651 601.562 27.5729 601.562 39.25H603.562ZM615.112 11.9885C622.581 5.16875 631.71 1.75 642.562 1.75V-0.25C631.248 -0.25 621.627 3.33125 613.763 10.5115L615.112 11.9885ZM642.562 75.625C646.541 75.625 649.949 74.7593 652.73 72.9653L651.645 71.2847C649.259 72.8241 646.251 73.625 642.562 73.625V75.625ZM652.725 72.9682C656.334 70.6675 658.939 66.6046 660.645 60.9775C662.351 55.347 663.188 48.051 663.188 39.125H661.188C661.188 47.949 660.358 55.028 658.73 60.3975C657.102 65.7704 654.708 69.3325 651.65 71.2818L652.725 72.9682ZM663.188 39.125C663.188 31.576 662.559 25.1983 661.284 20.0112L659.341 20.4888C660.566 25.4684 661.188 31.674 661.188 39.125H663.188ZM661.282 20.0057C659.917 14.5861 657.66 10.4114 654.44 7.59149C651.206 4.75906 647.094 3.375 642.188 3.375V5.375C646.698 5.375 650.315 6.63677 653.122 9.09601C655.944 11.5677 658.042 15.3305 659.343 20.4943L661.282 20.0057ZM642.188 3.375C639.235 3.375 636.552 3.89642 634.156 4.96119L634.969 6.78881C637.073 5.85358 639.473 5.375 642.188 5.375V3.375ZM634.172 4.95442C629.714 6.84586 626.466 10.8122 624.342 16.6256C622.223 22.4266 621.188 30.1518 621.188 39.75H623.188C623.188 30.2649 624.215 22.8025 626.221 17.3119C628.222 11.8337 631.161 8.40414 634.953 6.79558L634.172 4.95442ZM621.188 39.75C621.188 49.7984 622.231 57.6887 624.377 63.3542L626.248 62.6458C624.227 57.3113 623.188 49.7016 623.188 39.75H621.188ZM624.38 63.361C625.939 67.388 628.24 70.4752 631.316 72.548C634.39 74.6197 638.159 75.625 642.562 75.625V73.625C638.466 73.625 635.11 72.6928 632.434 70.8895C629.76 69.0873 627.686 66.362 626.245 62.639L624.38 63.361ZM743.312 5.375H742.312V6.375H743.312V5.375ZM743.312 2V1H742.312V2H743.312ZM768.562 2H769.562V1H768.562V2ZM768.562 5.375V6.375H769.562V5.375H768.562ZM758.562 5.375V4.375H757.562V5.375H758.562ZM758.562 76.375L758.735 77.36L759.562 77.2148V76.375H758.562ZM751.438 77.625L750.678 78.2759L751.049 78.7084L751.61 78.61L751.438 77.625ZM703.312 21.5L704.072 20.8491L702.312 18.7975V21.5H703.312ZM703.312 73.625H702.312V74.625H703.312V73.625ZM710.562 73.625L710.657 72.6295L710.61 72.625H710.562V73.625ZM713.938 77V78H715.206L714.91 76.7666L713.938 77ZM688.062 77H687.062V78H688.062V77ZM688.062 73.625V72.625H687.062V73.625H688.062ZM698.062 73.625V74.625H699.062V73.625H698.062ZM698.062 5.375H699.062V4.375H698.062V5.375ZM688.062 5.375H687.062V6.375H688.062V5.375ZM688.062 2V1H687.062V2H688.062ZM709.188 2L709.948 1.35118L709.649 1H709.188V2ZM753.312 53.75L752.552 54.3988L754.312 56.4641V53.75H753.312ZM753.312 5.375H754.312V4.375H753.312V5.375ZM744.312 5.375V2H742.312V5.375H744.312ZM743.312 3H768.562V1H743.312V3ZM767.562 2V5.375H769.562V2H767.562ZM768.562 4.375H758.562V6.375H768.562V4.375ZM757.562 5.375V76.375H759.562V5.375H757.562ZM758.39 75.39L751.265 76.64L751.61 78.61L758.735 77.36L758.39 75.39ZM752.197 76.9741L704.072 20.8491L702.553 22.1509L750.678 78.2759L752.197 76.9741ZM702.312 21.5V73.625H704.312V21.5H702.312ZM703.312 74.625H710.562V72.625H703.312V74.625ZM710.468 74.6205C711.137 74.6843 711.631 74.9202 712.012 75.3009C712.406 75.6952 712.744 76.3108 712.965 77.2334L714.91 76.7666C714.631 75.6058 714.157 74.6173 713.426 73.8866C712.681 73.1423 711.738 72.7324 710.657 72.6295L710.468 74.6205ZM713.938 76H688.062V78H713.938V76ZM689.062 77V73.625H687.062V77H689.062ZM688.062 74.625H698.062V72.625H688.062V74.625ZM699.062 73.625V5.375H697.062V73.625H699.062ZM698.062 4.375H688.062V6.375H698.062V4.375ZM689.062 5.375V2H687.062V5.375H689.062ZM688.062 3H709.188V1H688.062V3ZM708.427 2.64882L752.552 54.3988L754.073 53.1012L709.948 1.35118L708.427 2.64882ZM754.312 53.75V5.375H752.312V53.75H754.312ZM753.312 4.375H743.312V6.375H753.312V4.375Z" fill="white" mask="url(#path-1-outside-1_0_939)"/>
</svg>
