<svg xmlns="http://www.w3.org/2000/svg" width="18" height="18" viewBox="0 0 18 18" fill="none">
  <path d="M14.1271 3.185C13.8983 3.185 13.7122 3.37116 13.7122 3.59992C13.7122 3.82868 13.8983 4.01484 14.1271 4.01484C14.3559 4.01484 14.542 3.82871 14.542 3.59992C14.542 3.37113 14.3559 3.185 14.1271 3.185Z" fill="#456AE7"/>
  <path d="M9.15889 4.88977C7.13061 4.88977 5.48047 6.53991 5.48047 8.56819C5.48047 10.5965 7.13061 12.2466 9.15889 12.2466C11.1872 12.2466 12.8373 10.5965 12.8373 8.56822C12.8373 6.53994 11.1872 4.88977 9.15889 4.88977Z" fill="#456AE7"/>
  <path d="M13.019 0.0227051H5.29849C2.71506 0.0227051 0.613281 2.12449 0.613281 4.70795V12.4284C0.613281 15.0119 2.71506 17.1136 5.29849 17.1136H13.019C15.6024 17.1136 17.7042 15.0118 17.7042 12.4284V4.70795C17.7042 2.12449 15.6024 0.0227051 13.019 0.0227051ZM9.15874 13.2559C6.5739 13.2559 4.47105 11.153 4.47105 8.56816C4.47105 5.98333 6.57394 3.88051 9.15874 3.88051C11.7435 3.88051 13.8465 5.98336 13.8465 8.56816C13.8465 11.153 11.7435 13.2559 9.15874 13.2559ZM14.1268 5.02433C13.3415 5.02433 12.7026 4.38543 12.7026 3.60011C12.7026 2.8148 13.3415 2.17586 14.1268 2.17586C14.9121 2.17586 15.551 2.81477 15.551 3.60008C15.551 4.38539 14.9121 5.02433 14.1268 5.02433Z" fill="#456AE7"/>
</svg>