<svg xmlns="http://www.w3.org/2000/svg" width="26" height="18" viewBox="0 0 26 18" fill="none">
  <path d="M16.588 10.0625L14.444 12.2138C13.5745 13.0863 12.0447 13.1051 11.1565 12.2138L9.01232 10.0625L1.31152 17.7883C1.59817 17.9209 1.91422 18 2.25022 18H23.3502C23.6862 18 24.0022 17.921 24.2887 17.7884L16.588 10.0625Z" fill="#456AE7"/>
  <path d="M23.3499 0H2.24988C1.91388 0 1.59783 0.0791001 1.31128 0.21165L9.54013 8.4678C9.54068 8.46835 9.54133 8.46845 9.54188 8.469C9.54243 8.46955 9.54253 8.4703 9.54253 8.4703L12.2182 11.1548C12.5024 11.439 13.0975 11.439 13.3817 11.1548L16.0568 8.47075C16.0568 8.47075 16.0574 8.46955 16.058 8.469C16.058 8.469 16.0592 8.46835 16.0597 8.4678L24.2884 0.2116C24.0018 0.0790001 23.6859 0 23.3499 0Z" fill="#456AE7"/>
  <path d="M0.2393 1.26062C0.091 1.56052 0 1.89342 0 2.25002V15.75C0 16.1066 0.0909 16.4395 0.23925 16.7394L7.9534 9.00027L0.2393 1.26062Z" fill="#456AE7"/>
  <path d="M25.3608 1.2605L17.6467 9.00025L25.3608 16.7395C25.5091 16.4396 25.6001 16.1067 25.6001 15.75V2.25C25.6001 1.8933 25.5091 1.5604 25.3608 1.2605Z" fill="#456AE7"/>
</svg>